<svg width="1280" height="720" xmlns="http://www.w3.org/2000/svg" xmlns:xlink="http://www.w3.org/1999/xlink" overflow="hidden"><g><rect x="0" y="0" width="1280" height="720" fill="#FFFFFF"/><g><g><g><path d="M945.5 83.625 945.5 585.375" stroke="#000000" stroke-width="55.75" stroke-linecap="round" stroke-linejoin="round" fill="none"/><path d="M861.875 501.75 945.5 585.375 1029.12 501.75" stroke="#000000" stroke-width="55.75" stroke-linecap="round" stroke-linejoin="round" fill="none"/></g></g></g><g><g><g><path d="M560.816 105.879 675.152 105.879 675.152 586.075 627.465 586.075 627.465 152.27 560.816 152.27 560.816 105.879Z"/></g></g></g><g><g><g><path d="M290.453 271.043 123.312 467.609 326.75 467.609 326.75 512.68 25.66 512.68 185.289 325.508C185.289 325.508 258.523 240.996 265.414 230.359 272.305 219.723 277.313 200.933 277.313 183.406 277.313 128.941 233.484 84.4918 178.398 84.4918 123.933 84.4918 79.484 128.941 79.484 183.406 79.484 199.692 83.2499 214.074 90.1206 227.855L43.7883 227.855C38.7805 213.453 35.6556 199.692 35.6556 183.406 35.6556 105.164 100.136 40.6835 178.378 40.6835 251.613 40.6835 311.706 95.7694 319.859 167.141 320.48 172.149 320.48 178.418 320.48 183.426 320.48 216.598 309.202 247.286 290.433 271.063Z" transform="matrix(1 0 0 1.04368 140.219 51)"/></g></g></g></g></svg>